<svg width="53" height="53" viewBox="0 0 23 23" fill="none" xmlns="http://www.w3.org/2000/svg">
<g id="ph:arrow-up">
<path id="Vector" d="M15.3889 14.4752C15.3232 14.4752 15.2582 14.4623 15.1974 14.4372C15.1367 14.412 15.0816 14.3752 15.0351 14.3287C14.9886 14.2823 14.9518 14.2271 14.9267 14.1664C14.9015 14.1057 14.8886 14.0406 14.8887 13.9749L14.8891 8.81786L7.96431 15.7426C7.87054 15.8364 7.74336 15.8891 7.61076 15.8891C7.47815 15.8891 7.35097 15.8364 7.2572 15.7426C7.16343 15.6489 7.11076 15.5217 7.11076 15.3891C7.11076 15.2565 7.16343 15.1293 7.2572 15.0355L14.182 8.11076L9.02497 8.1112C8.89229 8.1112 8.76504 8.05849 8.67122 7.96467C8.5774 7.87085 8.52469 7.7436 8.52469 7.61092C8.52469 7.47824 8.5774 7.35099 8.67122 7.25717C8.76504 7.16335 8.89229 7.11064 9.02497 7.11064L15.3889 7.11064C15.4546 7.11061 15.5197 7.12352 15.5804 7.14865C15.6411 7.17378 15.6963 7.21063 15.7428 7.25709C15.7892 7.30355 15.8261 7.35872 15.8512 7.41943C15.8763 7.48014 15.8892 7.54521 15.8892 7.61092L15.8892 13.9749C15.8892 14.0406 15.8763 14.1057 15.8512 14.1664C15.8261 14.2271 15.7892 14.2823 15.7428 14.3287C15.6963 14.3752 15.6411 14.412 15.5804 14.4372C15.5197 14.4623 15.4546 14.4752 15.3889 14.4752Z" fill="white"/>
</g>
</svg>
