<svg width="23" height="24" viewBox="0 0 23 24" fill="none" xmlns="http://www.w3.org/2000/svg">
<g id="ph:arrow-up">
<path id="Vector" d="M15.3889 15.1727C15.3232 15.1728 15.2582 15.1599 15.1974 15.1347C15.1367 15.1096 15.0816 15.0728 15.0351 15.0263C14.9886 14.9798 14.9518 14.9247 14.9267 14.864C14.9015 14.8032 14.8886 14.7382 14.8887 14.6725L14.8891 9.51545L7.96431 16.4402C7.87054 16.534 7.74336 16.5867 7.61076 16.5867C7.47815 16.5867 7.35097 16.534 7.2572 16.4402C7.16343 16.3465 7.11076 16.2193 7.11076 16.0867C7.11076 15.9541 7.16343 15.8269 7.2572 15.7331L14.182 8.80834L9.02497 8.80879C8.89229 8.80879 8.76504 8.75608 8.67122 8.66226C8.5774 8.56844 8.52469 8.44119 8.52469 8.30851C8.52469 8.17583 8.5774 8.04858 8.67122 7.95476C8.76504 7.86094 8.89229 7.80823 9.02497 7.80823L15.3889 7.80823C15.4546 7.80819 15.5197 7.82111 15.5804 7.84624C15.6411 7.87136 15.6963 7.90821 15.7428 7.95468C15.7892 8.00114 15.8261 8.0563 15.8512 8.11702C15.8763 8.17773 15.8892 8.2428 15.8892 8.30851L15.8892 14.6725C15.8892 14.7382 15.8763 14.8032 15.8512 14.864C15.8261 14.9247 15.7892 14.9798 15.7428 15.0263C15.6963 15.0728 15.6411 15.1096 15.5804 15.1347C15.5197 15.1599 15.4546 15.1728 15.3889 15.1727Z" fill="#F8444F"/>
</g>
</svg>
