<svg width="32" height="33" viewBox="0 0 32 33" fill="none" xmlns="http://www.w3.org/2000/svg">
<g id="hugeicons:doctor-03">
<path id="Vector (Stroke)" fill-rule="evenodd" clip-rule="evenodd" d="M13.8314 3.04512C14.5189 2.76034 15.2558 2.61377 15.9999 2.61377C16.7441 2.61377 17.4809 2.76034 18.1685 3.04512C18.856 3.3299 19.4807 3.7473 20.0069 4.2735C20.5331 4.7997 20.9505 5.42438 21.2352 6.1119C21.52 6.79941 21.6666 7.53628 21.6666 8.28044V9.61377C21.6666 10.3579 21.52 11.0948 21.2352 11.7823C20.9505 12.4698 20.5331 13.0945 20.0069 13.6207C19.4807 14.1469 18.856 14.5643 18.1685 14.8491C17.4809 15.1339 16.7441 15.2804 15.9999 15.2804C15.2558 15.2804 14.5189 15.1339 13.8314 14.8491C13.1439 14.5643 12.5192 14.1469 11.993 13.6207C11.4668 13.0945 11.0494 12.4698 10.7646 11.7823C10.4798 11.0948 10.3333 10.3579 10.3333 9.61377V8.28044C10.3333 7.53628 10.4798 6.79941 10.7646 6.1119C11.0494 5.42438 11.4668 4.7997 11.993 4.2735C12.5192 3.7473 13.1439 3.3299 13.8314 3.04512ZM15.9999 4.61377C15.5184 4.61377 15.0416 4.70861 14.5967 4.89288C14.1519 5.07715 13.7477 5.34723 13.4072 5.68771C13.0667 6.02819 12.7966 6.4324 12.6124 6.87726C12.4281 7.32212 12.3333 7.79892 12.3333 8.28044V9.61377C12.3333 10.0953 12.4281 10.5721 12.6124 11.0169C12.7966 11.4618 13.0667 11.866 13.4072 12.2065C13.7477 12.547 14.1519 12.8171 14.5967 13.0013C15.0416 13.1856 15.5184 13.2804 15.9999 13.2804C16.4814 13.2804 16.9582 13.1856 17.4031 13.0013C17.848 12.8171 18.2522 12.547 18.5926 12.2065C18.9331 11.866 19.2032 11.4618 19.3875 11.0169C19.5717 10.5721 19.6666 10.0953 19.6666 9.61377V8.28044C19.6666 7.79892 19.5717 7.32212 19.3875 6.87726C19.2032 6.4324 18.9331 6.02819 18.5926 5.68771C18.2522 5.34723 17.848 5.07715 17.4031 4.89288C16.9582 4.70861 16.4814 4.61377 15.9999 4.61377ZM13.2601 17.2804H13.3333C13.5985 17.2804 13.8528 17.3858 14.0404 17.5733L15.9999 19.5329L17.9595 17.5733C18.147 17.3858 18.4014 17.2804 18.6666 17.2804H18.7397C20.5629 17.2804 22.0328 17.2804 23.1889 17.4359C24.3888 17.5972 25.3995 17.9425 26.2017 18.7453C27.0046 19.5475 27.3498 20.5582 27.5112 21.7581C27.6666 22.9142 27.6666 24.3841 27.6666 26.2072V30.2804C27.6666 30.8327 27.2189 31.2804 26.6666 31.2804C26.1143 31.2804 25.6666 30.8327 25.6666 30.2804V26.2804C25.6666 24.3668 25.6645 23.0319 25.529 22.0247C25.3974 21.0462 25.1567 20.5284 24.7879 20.1599C24.4194 19.7911 23.9008 19.5496 22.9223 19.418C21.9894 19.2926 20.7754 19.2815 19.0807 19.2805L16.707 21.6542C16.3165 22.0447 15.6833 22.0447 15.2928 21.6542L12.9191 19.2805C11.2245 19.2815 10.0104 19.2926 9.07754 19.418C8.09903 19.5496 7.5812 19.7903 7.21276 20.1591C6.84391 20.5276 6.60243 21.0462 6.47083 22.0247C6.33538 23.0319 6.33325 24.3668 6.33325 26.2804V30.2804C6.33325 30.8327 5.88554 31.2804 5.33325 31.2804C4.78097 31.2804 4.33325 30.8327 4.33325 30.2804L4.33325 26.2073C4.33323 24.3841 4.3332 22.9142 4.48868 21.7581C4.65005 20.5582 4.99529 19.5475 5.79815 18.7453C6.60031 17.9425 7.61101 17.5972 8.81097 17.4359C9.96702 17.2804 11.4369 17.2804 13.2601 17.2804ZM21.3333 21.2804C21.8855 21.2804 22.3333 21.7282 22.3333 22.2804V23.2804H23.3333C23.8855 23.2804 24.3333 23.7282 24.3333 24.2804C24.3333 24.8327 23.8855 25.2804 23.3333 25.2804H22.3333V26.2804C22.3333 26.8327 21.8855 27.2804 21.3333 27.2804C20.781 27.2804 20.3333 26.8327 20.3333 26.2804V25.2804H19.3333C18.781 25.2804 18.3333 24.8327 18.3333 24.2804C18.3333 23.7282 18.781 23.2804 19.3333 23.2804H20.3333V22.2804C20.3333 21.7282 20.781 21.2804 21.3333 21.2804Z" fill="white"/>
</g>
</svg>
