<svg width="32" height="32" viewBox="0 0 32 32" fill="none" xmlns="http://www.w3.org/2000/svg">
<g id="hugeicons:doctor-03">
<path id="Vector (Stroke)" fill-rule="evenodd" clip-rule="evenodd" d="M13.8314 2.09801C14.5189 1.81324 15.2558 1.66666 15.9999 1.66666C16.7441 1.66666 17.4809 1.81324 18.1685 2.09801C18.856 2.38279 19.4807 2.80019 20.0069 3.32639C20.5331 3.85259 20.9505 4.47728 21.2352 5.16479C21.52 5.8523 21.6666 6.58917 21.6666 7.33333V8.66666C21.6666 9.41082 21.52 10.1477 21.2352 10.8352C20.9505 11.5227 20.5331 12.1474 20.0069 12.6736C19.4807 13.1998 18.856 13.6172 18.1685 13.902C17.4809 14.1868 16.7441 14.3333 15.9999 14.3333C15.2558 14.3333 14.5189 14.1868 13.8314 13.902C13.1439 13.6172 12.5192 13.1998 11.993 12.6736C11.4668 12.1474 11.0494 11.5227 10.7646 10.8352C10.4798 10.1477 10.3333 9.41082 10.3333 8.66666V7.33333C10.3333 6.58917 10.4798 5.8523 10.7646 5.16479C11.0494 4.47728 11.4668 3.85259 11.993 3.32639C12.5192 2.80019 13.1439 2.38279 13.8314 2.09801ZM15.9999 3.66666C15.5184 3.66666 15.0416 3.7615 14.5967 3.94577C14.1519 4.13004 13.7477 4.40012 13.4072 4.74061C13.0667 5.08109 12.7966 5.4853 12.6124 5.93016C12.4281 6.37502 12.3333 6.85182 12.3333 7.33333V8.66666C12.3333 9.14818 12.4281 9.62498 12.6124 10.0698C12.7966 10.5147 13.0667 10.9189 13.4072 11.2594C13.7477 11.5999 14.1519 11.87 14.5967 12.0542C15.0416 12.2385 15.5184 12.3333 15.9999 12.3333C16.4814 12.3333 16.9582 12.2385 17.4031 12.0542C17.848 11.87 18.2522 11.5999 18.5926 11.2594C18.9331 10.9189 19.2032 10.5147 19.3875 10.0698C19.5717 9.62498 19.6666 9.14818 19.6666 8.66666V7.33333C19.6666 6.85182 19.5717 6.37502 19.3875 5.93016C19.2032 5.4853 18.9331 5.08109 18.5926 4.74061C18.2522 4.40012 17.848 4.13004 17.4031 3.94577C16.9582 3.7615 16.4814 3.66666 15.9999 3.66666ZM13.2601 16.3333H13.3333C13.5985 16.3333 13.8528 16.4387 14.0404 16.6262L15.9999 18.5858L17.9595 16.6262C18.147 16.4387 18.4014 16.3333 18.6666 16.3333H18.7397C20.5629 16.3333 22.0328 16.3333 23.1889 16.4888C24.3888 16.6501 25.3995 16.9954 26.2017 17.7982C27.0046 18.6004 27.3498 19.6111 27.5112 20.811C27.6666 21.9671 27.6666 23.437 27.6666 25.2601V29.3333C27.6666 29.8856 27.2189 30.3333 26.6666 30.3333C26.1143 30.3333 25.6666 29.8856 25.6666 29.3333V25.3333C25.6666 23.4197 25.6645 22.0848 25.529 21.0776C25.3974 20.0991 25.1567 19.5813 24.7879 19.2128C24.4194 18.844 23.9008 18.6025 22.9223 18.4709C21.9894 18.3454 20.7754 18.3344 19.0807 18.3334L16.707 20.7071C16.3165 21.0976 15.6833 21.0976 15.2928 20.7071L12.9191 18.3334C11.2245 18.3344 10.0104 18.3454 9.07754 18.4709C8.09903 18.6025 7.5812 18.8432 7.21276 19.212C6.84391 19.5805 6.60243 20.0991 6.47083 21.0776C6.33538 22.0848 6.33325 23.4197 6.33325 25.3333V29.3333C6.33325 29.8856 5.88554 30.3333 5.33325 30.3333C4.78097 30.3333 4.33325 29.8856 4.33325 29.3333L4.33325 25.2602C4.33323 23.437 4.3332 21.9671 4.48868 20.811C4.65005 19.6111 4.99529 18.6004 5.79815 17.7982C6.60031 16.9954 7.61101 16.6501 8.81097 16.4888C9.96702 16.3333 11.4369 16.3333 13.2601 16.3333ZM21.3333 20.3333C21.8855 20.3333 22.3333 20.781 22.3333 21.3333V22.3333H23.3333C23.8855 22.3333 24.3333 22.781 24.3333 23.3333C24.3333 23.8856 23.8855 24.3333 23.3333 24.3333H22.3333V25.3333C22.3333 25.8856 21.8855 26.3333 21.3333 26.3333C20.781 26.3333 20.3333 25.8856 20.3333 25.3333V24.3333H19.3333C18.781 24.3333 18.3333 23.8856 18.3333 23.3333C18.3333 22.781 18.781 22.3333 19.3333 22.3333H20.3333V21.3333C20.3333 20.781 20.781 20.3333 21.3333 20.3333Z" fill="white"/>
</g>
</svg>
