<svg width="32" height="32" viewBox="0 0 32 32" fill="none" xmlns="http://www.w3.org/2000/svg">
<g id="hugeicons:doctor-01">
<g id="Group">
<path id="Vector (Stroke)" fill-rule="evenodd" clip-rule="evenodd" d="M13.8314 2.09802C14.5189 1.81324 15.2558 1.66667 15.9999 1.66667C16.7441 1.66667 17.4809 1.81324 18.1685 2.09802C18.856 2.3828 19.4807 2.8002 20.0069 3.3264C20.5331 3.8526 20.9505 4.47729 21.2352 5.1648C21.52 5.85231 21.6666 6.58918 21.6666 7.33334V8.66667C21.6666 9.41083 21.52 10.1477 21.2352 10.8352C20.9505 11.5227 20.5331 12.1474 20.0069 12.6736C19.4807 13.1998 18.856 13.6172 18.1685 13.902C17.4809 14.1868 16.7441 14.3333 15.9999 14.3333C15.2558 14.3333 14.5189 14.1868 13.8314 13.902C13.1439 13.6172 12.5192 13.1998 11.993 12.6736C11.4668 12.1474 11.0494 11.5227 10.7646 10.8352C10.4798 10.1477 10.3333 9.41083 10.3333 8.66667V7.33334C10.3333 6.58918 10.4798 5.85231 10.7646 5.1648C11.0494 4.47729 11.4668 3.8526 11.993 3.3264C12.5192 2.8002 13.1439 2.3828 13.8314 2.09802ZM15.9999 3.66667C15.5184 3.66667 15.0416 3.76151 14.5967 3.94578C14.1519 4.13005 13.7477 4.40013 13.4072 4.74061C13.0667 5.0811 12.7966 5.48531 12.6124 5.93017C12.4281 6.37503 12.3333 6.85182 12.3333 7.33334V8.66667C12.3333 9.14819 12.4281 9.62498 12.6124 10.0698C12.7966 10.5147 13.0667 10.9189 13.4072 11.2594C13.7477 11.5999 14.1519 11.87 14.5967 12.0542C15.0416 12.2385 15.5184 12.3333 15.9999 12.3333C16.4814 12.3333 16.9582 12.2385 17.4031 12.0542C17.848 11.87 18.2522 11.5999 18.5926 11.2594C18.9331 10.9189 19.2032 10.5147 19.3875 10.0698C19.5717 9.62498 19.6666 9.14819 19.6666 8.66667V7.33334C19.6666 6.85182 19.5717 6.37503 19.3875 5.93017C19.2032 5.48531 18.9331 5.0811 18.5926 4.74061C18.2522 4.40013 17.848 4.13005 17.4031 3.94578C16.9582 3.76151 16.4814 3.66667 15.9999 3.66667ZM13.2601 16.3333H13.3333C13.5985 16.3333 13.8528 16.4387 14.0404 16.6262L15.9999 18.5858L17.9595 16.6262C18.147 16.4387 18.4014 16.3333 18.6666 16.3333H18.7397C19.623 16.3333 20.4234 16.3333 21.1453 16.351C21.2062 16.3394 21.269 16.3333 21.3333 16.3333C21.4188 16.3333 21.5019 16.3441 21.5811 16.3643C22.1732 16.3863 22.7082 16.4241 23.1889 16.4888C24.3888 16.6501 25.3995 16.9954 26.2017 17.7982C27.0046 18.6004 27.3498 19.6111 27.5112 20.8111C27.6666 21.9671 27.6666 23.437 27.6666 25.2601V29.3333C27.6666 29.8856 27.2189 30.3333 26.6666 30.3333C26.1143 30.3333 25.6666 29.8856 25.6666 29.3333V25.3333C25.6666 23.4197 25.6645 22.0848 25.529 21.0776C25.3974 20.0991 25.1567 19.5813 24.7879 19.2128C24.4194 18.844 23.9008 18.6025 22.9223 18.4709C22.7375 18.4461 22.5417 18.4257 22.3333 18.409V23.9346C22.4834 24.0213 22.6228 24.1278 22.7475 24.2525C23.1225 24.6275 23.3333 25.1362 23.3333 25.6667C23.3333 26.1971 23.1225 26.7058 22.7475 27.0809C22.3724 27.456 21.8637 27.6667 21.3333 27.6667C20.8028 27.6667 20.2941 27.456 19.919 27.0809C19.544 26.7058 19.3333 26.1971 19.3333 25.6667C19.3333 25.1362 19.544 24.6275 19.919 24.2525C20.0437 24.1278 20.1832 24.0213 20.3333 23.9346V18.3383C19.9472 18.3346 19.5309 18.3337 19.0807 18.3334L16.707 20.7071C16.3165 21.0976 15.6833 21.0976 15.2928 20.7071L12.9191 18.3334C12.7171 18.3335 12.5219 18.3338 12.3333 18.3344V21.8057C12.93 21.9748 13.4796 22.2942 13.926 22.7406C14.6136 23.4282 14.9999 24.3609 14.9999 25.3333V26.6667C14.9999 27.219 14.5522 27.6667 13.9999 27.6667C13.4476 27.6667 12.9999 27.219 12.9999 26.6667V25.3333C12.9999 24.8913 12.8243 24.4674 12.5118 24.1548C12.1992 23.8423 11.7753 23.6667 11.3333 23.6667C10.8912 23.6667 10.4673 23.8423 10.1547 24.1548C9.84218 24.4674 9.66659 24.8913 9.66659 25.3333V26.6667C9.66659 27.219 9.21887 27.6667 8.66659 27.6667C8.1143 27.6667 7.66659 27.219 7.66659 26.6667V25.3333C7.66659 24.3609 8.0529 23.4282 8.74053 22.7406C9.1869 22.2942 9.73652 21.9748 10.3333 21.8057V18.3691C9.86211 18.3894 9.44769 18.4211 9.07754 18.4709C8.09903 18.6025 7.5812 18.8432 7.21276 19.212C6.84391 19.5805 6.60243 20.0991 6.47083 21.0776C6.33538 22.0848 6.33325 23.4197 6.33325 25.3333V29.3333C6.33325 29.8856 5.88554 30.3333 5.33325 30.3333C4.78097 30.3333 4.33325 29.8856 4.33325 29.3333L4.33325 25.2602C4.33323 23.437 4.3332 21.9671 4.48868 20.8111C4.65005 19.6111 4.99529 18.6004 5.79815 17.7982C6.60031 16.9954 7.61101 16.6501 8.81097 16.4888C9.49121 16.3973 10.2801 16.3596 11.1857 16.3441C11.2339 16.337 11.2831 16.3333 11.3333 16.3333C11.3732 16.3333 11.4127 16.3357 11.4515 16.3403C12.0111 16.3333 12.6133 16.3333 13.2601 16.3333Z" fill="#107BA2"/>
</g>
</g>
</svg>
