<svg width="32" height="32" viewBox="0 0 32 32" fill="none" xmlns="http://www.w3.org/2000/svg">
<g id="healthicons:child-program-outline">
<g id="Group">
<path id="Vector" fill-rule="evenodd" clip-rule="evenodd" d="M9.99992 12C10.7072 12 11.3854 11.719 11.8855 11.219C12.3856 10.7189 12.6666 10.0406 12.6666 9.33333C12.6666 8.62609 12.3856 7.94781 11.8855 7.44772C11.3854 6.94762 10.7072 6.66667 9.99992 6.66667C9.29267 6.66667 8.6144 6.94762 8.1143 7.44772C7.6142 7.94781 7.33325 8.62609 7.33325 9.33333C7.33325 10.0406 7.6142 10.7189 8.1143 11.219C8.6144 11.719 9.29267 12 9.99992 12ZM9.99992 10.6667C10.3535 10.6667 10.6927 10.5262 10.9427 10.2761C11.1928 10.0261 11.3333 9.68696 11.3333 9.33333C11.3333 8.97971 11.1928 8.64057 10.9427 8.39053C10.6927 8.14048 10.3535 8 9.99992 8C9.6463 8 9.30716 8.14048 9.05711 8.39053C8.80706 8.64057 8.66659 8.97971 8.66659 9.33333C8.66659 9.68696 8.80706 10.0261 9.05711 10.2761C9.30716 10.5262 9.6463 10.6667 9.99992 10.6667Z" fill="#107BA2"/>
<path id="Vector_2" d="M12.1787 15.6013L8.37866 14L12.1787 15.6027V15.6013ZM12.1787 15.6013L12.2933 15.65L12.1787 15.4767V15.6013Z" fill="#107BA2"/>
<path id="Vector_3" fill-rule="evenodd" clip-rule="evenodd" d="M6.54663 13.3267C6.92196 13.042 7.55463 12.6667 8.3793 12.6667H11.71C12.6186 12.6667 13.2966 13.1453 13.6266 13.412C14.0133 13.7247 14.348 14.1007 14.6066 14.422C15.0193 14.9327 15.4 15.512 15.6173 15.8407L15.622 15.8473C15.674 15.9273 15.7149 15.9891 15.7446 16.0327C15.8826 16.236 15.978 16.4567 16.0333 16.682C16.082 16.4233 16.184 16.1707 16.3433 15.9393C16.4091 15.8433 16.4884 15.7256 16.5813 15.586L16.5886 15.574C16.842 15.1927 17.184 14.6787 17.522 14.258C17.762 13.9587 18.0766 13.6067 18.4573 13.3153C18.8193 13.038 19.436 12.6667 20.2426 12.6667H23.462C24.3506 12.6667 25.0113 13.14 25.3286 13.3993C25.7033 13.7053 26.026 14.0727 26.276 14.386C26.674 14.8853 27.0426 15.4507 27.2513 15.7713L27.254 15.776L27.256 15.7787L27.26 15.7847C27.3089 15.8602 27.3471 15.9184 27.3746 15.9593C27.5753 16.2586 27.6888 16.6077 27.7025 16.9677C27.7162 17.3277 27.6296 17.6845 27.4523 17.9981C27.275 18.3117 27.0139 18.5699 26.6984 18.7438C26.3828 18.9176 26.0251 19.0003 25.6653 18.9827C25.8573 19.678 26.042 20.31 26.1753 20.7553C26.3846 21.4573 25.964 22.216 25.2206 22.3713C22.814 22.8747 21.1113 22.8587 18.5246 22.3647C18.3479 22.3303 18.1805 22.259 18.0332 22.1555C17.8859 22.0521 17.7621 21.9187 17.6699 21.7641C17.5777 21.6095 17.5191 21.4372 17.4979 21.2585C17.4768 21.0797 17.4936 20.8985 17.5473 20.7267C17.6846 20.2847 17.8726 19.6653 18.0646 18.9813C17.6301 19.0093 17.1988 18.8897 16.8406 18.642C16.45 18.3738 16.1715 17.9714 16.058 17.5113C16.0106 17.7733 15.9115 18.0231 15.7663 18.2462C15.6211 18.4693 15.4329 18.6612 15.2126 18.8107C14.9703 18.9751 14.6949 19.0844 14.4058 19.1307C14.1166 19.177 13.8208 19.1592 13.5393 19.0787L13.5433 19.112L13.988 23.112C14.0464 23.6302 13.9 24.1508 13.5802 24.5627C13.2603 24.9746 12.7922 25.2452 12.2756 25.317C11.7591 25.3887 11.2349 25.2558 10.8149 24.9467C10.3949 24.6375 10.1123 24.1765 10.0273 23.662L9.99996 23.4987L9.9733 23.662C9.89175 24.1797 9.61024 24.6448 9.18932 24.957C8.76841 25.2693 8.24173 25.4039 7.72261 25.3318C7.20348 25.2597 6.73339 24.9868 6.41348 24.5716C6.09356 24.1565 5.94938 23.6324 6.01196 23.112L6.3573 20.0087L6.38996 19.1173C5.99872 19.1951 5.59315 19.1541 5.22538 18.9996C4.85761 18.8451 4.54444 18.5842 4.32612 18.2503C4.10781 17.9165 3.99431 17.5249 4.00022 17.1261C4.00613 16.7272 4.13118 16.3392 4.3593 16.012C4.42463 15.9173 4.50308 15.8018 4.59463 15.6653L4.6133 15.638C4.87463 15.248 5.22863 14.7213 5.57863 14.2913C5.82796 13.9847 6.15396 13.6247 6.54663 13.3267ZM8.37996 14C7.96796 14 7.6173 14.1887 7.35196 14.3893C7.0813 14.5947 6.8333 14.8627 6.61396 15.132C6.30863 15.508 5.98796 15.9833 5.7193 16.3833L5.70996 16.3967C5.6173 16.5347 5.5293 16.666 5.45396 16.7747C5.40062 16.8463 5.36221 16.9279 5.34102 17.0147C5.31983 17.1014 5.31629 17.1916 5.33061 17.2797C5.34492 17.3679 5.37681 17.4523 5.42437 17.5279C5.47193 17.6035 5.53419 17.6687 5.60746 17.7198C5.68073 17.7709 5.76352 17.8067 5.8509 17.8251C5.93829 17.8436 6.02849 17.8443 6.11615 17.8272C6.20381 17.8101 6.28715 17.7756 6.36122 17.7257C6.43528 17.6758 6.49856 17.6115 6.5473 17.5367L7.8513 15.6633L7.68863 20.1067L7.33796 23.26C7.32003 23.432 7.36964 23.6042 7.47631 23.7403C7.58297 23.8765 7.73836 23.9658 7.90965 23.9895C8.08095 24.0132 8.25475 23.9694 8.39438 23.8674C8.534 23.7654 8.62851 23.6131 8.65796 23.4427L9.32063 19.468L10.0046 19.316L10.682 19.4747L11.3433 23.4427C11.3725 23.6134 11.467 23.766 11.6068 23.8682C11.7465 23.9705 11.9206 24.0143 12.0921 23.9905C12.2636 23.9667 12.4192 23.8771 12.5258 23.7406C12.6324 23.6041 12.6817 23.4315 12.6633 23.2593L12.2186 19.2593C12.215 19.2269 12.209 19.1949 12.2006 19.1633L12.1793 19.08V15.6027L12.2946 15.6513L13.4013 17.3247L13.5386 17.53C13.6379 17.6763 13.7912 17.7772 13.9649 17.8104C14.1386 17.8437 14.3183 17.8066 14.4646 17.7073C14.6109 17.6081 14.7118 17.4547 14.7451 17.2811C14.7783 17.1074 14.7412 16.9276 14.642 16.7813L14.5126 16.5867L12.2946 15.6513L12.294 15.65L14.5113 16.5847L14.5086 16.5813C14.2893 16.248 13.9386 15.716 13.57 15.2587C13.3373 14.9707 13.0713 14.6767 12.79 14.4493C12.5273 14.2373 12.1513 14 11.7106 14H8.37996ZM19.236 14.3313C19.4933 14.1347 19.8373 13.9467 20.2433 13.9467H23.4626C23.8973 13.9467 24.266 14.1833 24.52 14.3907C24.7933 14.614 25.0513 14.902 25.276 15.184C25.6333 15.6313 25.9726 16.152 26.1846 16.4773L26.1866 16.4807C26.2346 16.554 26.2786 16.6213 26.3133 16.6727C26.4117 16.8185 26.4481 16.9975 26.4145 17.1702C26.381 17.343 26.2802 17.4953 26.1343 17.5937C25.9884 17.6921 25.8094 17.7285 25.6367 17.6949C25.464 17.6613 25.3117 17.5605 25.2133 17.4147C25.1288 17.2904 25.0032 17.1999 24.8586 17.1589C24.714 17.118 24.5596 17.1292 24.4225 17.1907C24.2853 17.2521 24.1742 17.3599 24.1085 17.4951C24.0428 17.6302 24.0268 17.7842 24.0633 17.93C24.368 19.1407 24.73 20.3867 24.9493 21.1207C22.7326 21.5833 21.2046 21.5727 18.7693 21.1087L18.77 21.1067C19.1054 20.0342 19.4113 18.9526 19.6873 17.8633C19.7233 17.7177 19.7071 17.5641 19.6414 17.4293C19.5757 17.2944 19.4647 17.187 19.3279 17.1256C19.191 17.0642 19.037 17.0529 18.8926 17.0935C18.7482 17.1342 18.6227 17.2242 18.538 17.348L18.49 17.4187C18.3896 17.5623 18.2364 17.6603 18.064 17.6914C17.8916 17.7225 17.7139 17.6841 17.5697 17.5846C17.4254 17.4851 17.3264 17.3326 17.2943 17.1604C17.2621 16.9881 17.2994 16.8102 17.398 16.6653C17.4706 16.56 17.556 16.432 17.6453 16.2973L17.6486 16.2927C17.9093 15.9 18.222 15.4307 18.52 15.06C18.732 14.796 18.9726 14.5333 19.236 14.3313ZM22 12C22.7072 12 23.3855 11.719 23.8856 11.219C24.3857 10.7189 24.6666 10.0406 24.6666 9.33333C24.6666 8.62609 24.3857 7.94781 23.8856 7.44772C23.3855 6.94762 22.7072 6.66667 22 6.66667C21.2927 6.66667 20.6144 6.94762 20.1143 7.44772C19.6142 7.94781 19.3333 8.62609 19.3333 9.33333C19.3333 10.0406 19.6142 10.7189 20.1143 11.219C20.6144 11.719 21.2927 12 22 12ZM22 10.6667C22.3536 10.6667 22.6927 10.5262 22.9428 10.2761C23.1928 10.0261 23.3333 9.68696 23.3333 9.33333C23.3333 8.97971 23.1928 8.64057 22.9428 8.39053C22.6927 8.14048 22.3536 8 22 8C21.6463 8 21.3072 8.14048 21.0572 8.39053C20.8071 8.64057 20.6666 8.97971 20.6666 9.33333C20.6666 9.68696 20.8071 10.0261 21.0572 10.2761C21.3072 10.5262 21.6463 10.6667 22 10.6667Z" fill="#107BA2"/>
<path id="Vector_4" d="M19.8667 25.3247C19.6267 25.2924 19.4065 25.1741 19.2471 24.9918C19.0878 24.8095 18.9999 24.5755 19 24.3333V23.5093C19.7339 23.6043 20.4718 23.6652 21.2113 23.692L20.9647 24.5967C20.9009 24.8303 20.7546 25.0329 20.5527 25.1668C20.3509 25.3007 20.1074 25.3568 19.8673 25.3247M23.0353 24.5967L22.7873 23.6887C23.5273 23.6582 24.2656 23.5952 25 23.5V24.3333C25 24.5755 24.912 24.8095 24.7526 24.9917C24.5931 25.174 24.3729 25.2922 24.1328 25.3243C23.8928 25.3565 23.6493 25.3005 23.4474 25.1666C23.2456 25.0328 23.0991 24.8303 23.0353 24.5967Z" fill="#107BA2"/>
</g>
</g>
</svg>
