<svg width="24" height="25" viewBox="0 0 24 25" fill="none" xmlns="http://www.w3.org/2000/svg">
<g id="ri:linkedin-fill">
<path id="Vector" d="M6.93994 5.19436C6.93968 5.72479 6.72871 6.2334 6.35345 6.60828C5.97819 6.98317 5.46937 7.19362 4.93894 7.19336C4.40851 7.19309 3.89991 6.98213 3.52502 6.60687C3.15014 6.23161 2.93968 5.72279 2.93994 5.19236C2.94021 4.66193 3.15117 4.15332 3.52644 3.77844C3.9017 3.40355 4.41051 3.19309 4.94094 3.19336C5.47137 3.19362 5.97998 3.40459 6.35486 3.77985C6.72975 4.15511 6.94021 4.66393 6.93994 5.19436ZM6.99994 8.67436H2.99994V21.1944H6.99994V8.67436ZM13.3199 8.67436H9.33994V21.1944H13.2799V14.6244C13.2799 10.9644 18.0499 10.6244 18.0499 14.6244V21.1944H21.9999V13.2644C21.9999 7.09436 14.9399 7.32436 13.2799 10.3544L13.3199 8.67436Z" fill="#BBE8F8"/>
</g>
</svg>
