<svg width="19" height="19" viewBox="0 0 19 19" fill="none" xmlns="http://www.w3.org/2000/svg">
<g id="mingcute:right-line">
<g clip-path="url(#clip0_1547_174)">
<rect x="18.0754" y="0.504639" width="18" height="18" rx="9" transform="rotate(90 18.0754 0.504639)" fill="#F4F0E9"/>
<g id="Group">
<path id="Vector" fill-rule="evenodd" clip-rule="evenodd" d="M9.60568 12.2849C9.46503 12.4255 9.2743 12.5045 9.07543 12.5045C8.87655 12.5045 8.68582 12.4255 8.54518 12.2849L4.30243 8.04215C4.23079 7.97297 4.17366 7.89021 4.13435 7.79871C4.09504 7.7072 4.07435 7.60879 4.07349 7.5092C4.07262 7.40962 4.0916 7.31086 4.12931 7.21869C4.16702 7.12651 4.22271 7.04277 4.29313 6.97236C4.36355 6.90194 4.44729 6.84625 4.53946 6.80854C4.63163 6.77082 4.73039 6.75185 4.82998 6.75271C4.92956 6.75358 5.02798 6.77427 5.11948 6.81358C5.21098 6.85288 5.29374 6.91002 5.36293 6.98165L9.07543 10.6942L12.7879 6.98165C12.9294 6.84503 13.1188 6.76944 13.3155 6.77115C13.5121 6.77285 13.7002 6.85173 13.8393 6.99079C13.9783 7.12984 14.0572 7.31795 14.0589 7.5146C14.0606 7.71125 13.985 7.9007 13.8484 8.04215L9.60568 12.2849Z" fill="#ADAAA5"/>
</g>
</g>
</g>
<defs>
<clipPath id="clip0_1547_174">
<rect x="18.0754" y="0.504639" width="18" height="18" rx="9" transform="rotate(90 18.0754 0.504639)" fill="white"/>
</clipPath>
</defs>
</svg>
