<svg width="24" height="24" viewBox="0 0 24 24" fill="none" xmlns="http://www.w3.org/2000/svg">
<path d="M15.8889 14.9755C15.8232 14.9755 15.7582 14.9626 15.6974 14.9375C15.6367 14.9123 15.5816 14.8755 15.5351 14.829C15.4886 14.7826 15.4518 14.7274 15.4267 14.6667C15.4015 14.606 15.3886 14.5409 15.3887 14.4752L15.3891 9.31818L8.46431 16.243C8.37054 16.3367 8.24336 16.3894 8.11076 16.3894C7.97815 16.3894 7.85097 16.3367 7.7572 16.243C7.66343 16.1492 7.61076 16.022 7.61076 15.8894C7.61076 15.7568 7.66343 15.6296 7.7572 15.5359L14.682 8.61108L9.52497 8.61152C9.39229 8.61152 9.26504 8.55881 9.17122 8.46499C9.0774 8.37117 9.02469 8.24392 9.02469 8.11124C9.02469 7.97856 9.0774 7.85131 9.17122 7.75749C9.26504 7.66367 9.39229 7.61096 9.52497 7.61096L15.8889 7.61096C15.9546 7.61093 16.0197 7.62384 16.0804 7.64897C16.1411 7.6741 16.1963 7.71095 16.2428 7.75741C16.2892 7.80387 16.3261 7.85904 16.3512 7.91975C16.3763 7.98046 16.3892 8.04553 16.3892 8.11124L16.3892 14.4752C16.3892 14.5409 16.3763 14.606 16.3512 14.6667C16.3261 14.7274 16.2892 14.7826 16.2428 14.829C16.1963 14.8755 16.1411 14.9123 16.0804 14.9375C16.0197 14.9626 15.9546 14.9755 15.8889 14.9755Z" fill="white"/>
</svg>
