<svg width="18" height="19" viewBox="0 0 18 19" fill="none" xmlns="http://www.w3.org/2000/svg">
<g id="mingcute:right-line">
<g clip-path="url(#clip0_1650_1862)">
<rect y="0.197266" width="18" height="18" rx="9" fill="#107BA2"/>
<g id="Group">
<path id="Vector" fill-rule="evenodd" clip-rule="evenodd" d="M11.7803 8.66715C11.9209 8.8078 11.9999 8.99853 11.9999 9.1974C11.9999 9.39627 11.9209 9.587 11.7803 9.72765L7.53751 13.9704C7.46833 14.042 7.38557 14.0992 7.29407 14.1385C7.20256 14.1778 7.10415 14.1985 7.00456 14.1993C6.90498 14.2002 6.80622 14.1812 6.71405 14.1435C6.62188 14.1058 6.53814 14.0501 6.46772 13.9797C6.3973 13.9093 6.34161 13.8255 6.3039 13.7334C6.26619 13.6412 6.24721 13.5424 6.24808 13.4429C6.24894 13.3433 6.26963 13.2449 6.30894 13.1533C6.34824 13.0618 6.40538 12.9791 6.47701 12.9099L10.1895 9.1974L6.47701 5.4849C6.34039 5.34345 6.2648 5.154 6.26651 4.95735C6.26822 4.7607 6.34709 4.57259 6.48615 4.43354C6.6252 4.29448 6.81331 4.2156 7.00996 4.2139C7.20661 4.21219 7.39606 4.28778 7.53751 4.4244L11.7803 8.66715Z" fill="#E7F2F6"/>
</g>
</g>
</g>
<defs>
<clipPath id="clip0_1650_1862">
<rect y="0.197266" width="18" height="18" rx="9" fill="white"/>
</clipPath>
</defs>
</svg>
