<svg width="24" height="25" viewBox="0 0 24 25" fill="none" xmlns="http://www.w3.org/2000/svg">
<g id="ic:round-tiktok">
<path id="Vector" d="M16.5999 6.01434C15.9163 5.23396 15.5396 4.23177 15.5399 3.19434H12.4499V15.5943C12.4261 16.2654 12.1428 16.901 11.6597 17.3673C11.1766 17.8336 10.5314 18.0942 9.85991 18.0943C8.43991 18.0943 7.25991 16.9343 7.25991 15.4943C7.25991 13.7743 8.91991 12.4843 10.6299 13.0143V9.85434C7.17991 9.39434 4.15991 12.0743 4.15991 15.4943C4.15991 18.8243 6.91991 21.1943 9.84991 21.1943C12.9899 21.1943 15.5399 18.6443 15.5399 15.4943V9.20434C16.7929 10.1042 18.2973 10.587 19.8399 10.5843V7.49434C19.8399 7.49434 17.9599 7.58434 16.5999 6.01434Z" fill="#BBE8F8"/>
</g>
</svg>
