<svg width="24" height="25" viewBox="0 0 24 25" fill="none" xmlns="http://www.w3.org/2000/svg">
<g id="mdi:youtube">
<path id="Vector" d="M10 15.1943L15.19 12.1943L10 9.19434V15.1943ZM21.56 7.36434C21.69 7.83434 21.78 8.46434 21.84 9.26434C21.91 10.0643 21.94 10.7543 21.94 11.3543L22 12.1943C22 14.3843 21.84 15.9943 21.56 17.0243C21.31 17.9243 20.73 18.5043 19.83 18.7543C19.36 18.8843 18.5 18.9743 17.18 19.0343C15.88 19.1043 14.69 19.1343 13.59 19.1343L12 19.1943C7.81 19.1943 5.2 19.0343 4.17 18.7543C3.27 18.5043 2.69 17.9243 2.44 17.0243C2.31 16.5543 2.22 15.9243 2.16 15.1243C2.09 14.3243 2.06 13.6343 2.06 13.0343L2 12.1943C2 10.0043 2.16 8.39434 2.44 7.36434C2.69 6.46434 3.27 5.88434 4.17 5.63434C4.64 5.50434 5.5 5.41434 6.82 5.35434C8.12 5.28434 9.31 5.25434 10.41 5.25434L12 5.19434C16.19 5.19434 18.8 5.35434 19.83 5.63434C20.73 5.88434 21.31 6.46434 21.56 7.36434Z" fill="#BBE8F8"/>
</g>
</svg>
